<svg xmlns="http://www.w3.org/2000/svg" viewBox="0 0 116 108" role="img" aria-label="RefCommand shield">
<path d="M12 8 58 1l46 7v42c0 26-18 43-46 54C30 93 12 76 12 50Z" fill="#e11d2e"/><path d="M18 13 58 7l40 6v36c0 22-15 37-40 47-25-10-40-25-40-47Z" fill="#06192e"/><path d="M21 18 58 12l37 6" fill="none" stroke="#fff" stroke-width="3"/><path d="M32 43c7-7 17-8 26-4l20 9-5 10-21-10c-6-3-12-2-17 3l-5-8Z" fill="#fff"/><circle cx="79" cy="54" r="10" fill="none" stroke="#fff" stroke-width="4"/><path d="m69 61 9 8" stroke="#fff" stroke-width="4"/></svg>
